# xmcd
#
# Track frame offsets:
#	150
#	30509
#	80346
#	91648
#	113224
#	144990
#	180991
#	211001
#	255413
#	283352
#
# Disc length: 4115 seconds
#
# Revision: 0
# Processed by: cddbd v1.5.2PL0 Copyright (c) Steve Scherf et al.
# Submitted via: audiograbber 1.83.01
#
DISCID=7710110a
DTITLE=Grateful Dead - 82-04-02 Cameron Indoor Stadium, Duke Uni, Durham NC
DYEAR=1900
DGENRE=
TTITLE0=Minglewood Blues
TTITLE1=Sugaree
TTITLE2=Mama Tried
TTITLE3=Mexicali Blues
TTITLE4=Loser
TTITLE5=Little Red Rooster
TTITLE6=Candyman
TTITLE7=Looks Like Rain
TTITLE8=China Cat Sunflower
TTITLE9=I Know You Rider
EXTD=
EXTT0=
EXTT1=
EXTT2=
EXTT3=
EXTT4=
EXTT5=
EXTT6=
EXTT7=
EXTT8=
EXTT9=
PLAYORDER=
